<svg width="32" height="32" viewBox="0 0 32 32" fill="none" xmlns="http://www.w3.org/2000/svg">
<path d="M27.305 7C28.793 7 30 8.207 30 9.695V22.305C30 23.793 28.793 25 27.305 25H4.695C3.207 25 2 23.793 2 22.305V9.695C2 8.207 3.207 7 4.695 7H27.305ZM27.305 8H4.695C3.808 8 3.08 8.681 3.006 9.549L3 9.695V22.305C3 23.192 3.681 23.92 4.549 23.994L4.695 24H27.305C28.192 24 28.92 23.319 28.994 22.451L29 22.305V9.695C29 8.808 28.319 8.08 27.451 8.006L27.305 8Z" fill="#242424"/>
<path d="M8.146 21.214L8.676 19.608H10.962L11.492 21.214H12.663L10.458 15H9.205L7 21.214H8.146ZM10.699 18.751H8.934L9.804 16.098H9.834L10.699 18.751ZM15.954 21.214V15.94H17.81V15H12.986V15.939H14.846V21.214H15.954V21.214ZM19.571 21.214V16.804H19.601L21.397 21.214H22.155L23.951 16.804H23.981V21.214H24.981V15H23.697L21.793 19.742H21.759L19.855 15H18.568V21.214H19.571V21.214Z" fill="black"/>
<path d="M26 10H23C22.4477 10 22 10.4477 22 11V12C22 12.5523 22.4477 13 23 13H26C26.5523 13 27 12.5523 27 12V11C27 10.4477 26.5523 10 26 10Z" fill="#0D5CB6"/>
</svg>
