<svg width="104" height="32" viewBox="0 0 104 32" fill="none" xmlns="http://www.w3.org/2000/svg">
<mask id="mask0" style="mask-type:alpha" maskUnits="userSpaceOnUse" x="0" y="6" width="32" height="20">
<path d="M30.182 6H1.818C0.813946 6 0 6.81395 0 7.818V24.182C0 25.1861 0.813946 26 1.818 26H30.182C31.1861 26 32 25.1861 32 24.182V7.818C32 6.81395 31.1861 6 30.182 6Z" fill="white"/>
</mask>
<g mask="url(#mask0)">
<path fill-rule="evenodd" clip-rule="evenodd" d="M9.81111 10.6916L7.26611 17.2116L6.23611 11.6676C6.11711 11.0486 5.64011 10.6916 5.11011 10.6916H0.949113L0.891113 10.9696C1.74511 11.1576 2.71511 11.4596 3.30311 11.7846C3.66311 11.9826 3.76611 12.1556 3.88411 12.6266L5.83411 20.2706H8.41811L12.3791 10.6916H9.81111ZM13.4281 10.6916L11.4061 20.2706H13.8511L15.8721 10.6916H13.4281ZM27.4461 13.2786L28.1861 16.8766H26.1591L27.4461 13.2786V13.2786ZM27.0871 10.6916C26.6191 10.6916 26.2231 10.9686 26.0471 11.3946L22.3791 20.2706H24.9451L25.4551 18.8406H28.5911L28.8881 20.2706H31.1481L29.1761 10.6916H27.0881H27.0871ZM16.5411 13.6826C16.5231 15.0626 17.7541 15.8326 18.6811 16.2896C19.6331 16.7596 19.9521 17.0596 19.9491 17.4796C19.9421 18.1226 19.1891 18.4066 18.4851 18.4176C17.2571 18.4376 16.5431 18.0816 15.9751 17.8126L15.5321 19.9116C16.1021 20.1776 17.1561 20.4096 18.2511 20.4196C20.8181 20.4196 22.4981 19.1356 22.5071 17.1426C22.5171 14.6156 19.0571 14.4756 19.0811 13.3456C19.0891 13.0026 19.4111 12.6376 20.1191 12.5446C20.4691 12.4976 21.4341 12.4616 22.5291 12.9726L22.9591 10.9426C22.3691 10.7246 21.6111 10.5166 20.6701 10.5166C18.2531 10.5166 16.5531 11.8186 16.5401 13.6826" fill="#1A1F71"/>
</g>
<path d="M48.3877 9.45898H55.5667V22.384H48.3877V9.45898Z" fill="#FF5F00"/>
<path d="M48.8439 15.9228C48.8409 13.3998 49.9969 11.0168 51.9779 9.45877C48.6129 6.81077 43.7819 7.19677 40.8799 10.3448C37.9769 13.4948 37.9769 18.3488 40.8799 21.4978C43.7819 24.6468 48.6129 25.0318 51.9779 22.3838C49.9979 20.8268 48.8419 18.4438 48.8439 15.9228V15.9228Z" fill="#EB001B"/>
<path d="M65.2541 15.9227C65.2541 19.0697 63.46 21.9397 60.634 23.3147C57.809 24.6907 54.4471 24.3287 51.9781 22.3837C53.9571 20.8257 55.113 18.4437 55.113 15.9217C55.113 13.3997 53.9571 11.0167 51.9771 9.45867C54.4471 7.51367 57.807 7.15267 60.633 8.52767C63.459 9.90267 65.2531 12.7737 65.2531 15.9197V15.9227H65.2541Z" fill="#F79E1B"/>
<path d="M101.562 21.9422C101.562 24.2842 99.6552 26.1902 97.3132 26.1902H74.2002V9.36519C74.2002 7.02419 76.1072 5.11719 78.4482 5.11719H101.562V21.9422V21.9422Z" fill="white"/>
<path d="M94.0352 17.6275H95.7912C95.8412 17.6275 95.9592 17.6105 96.0092 17.6105C96.3432 17.5435 96.6282 17.2425 96.6282 16.8245C96.6282 16.4235 96.3432 16.1225 96.0082 16.0385C95.9582 16.0215 95.8582 16.0215 95.7912 16.0215H94.0352V17.6275V17.6275Z" fill="url(#paint0_linear)"/>
<path d="M95.5903 6.53809C93.9193 6.53809 92.5483 7.89309 92.5483 9.58209V12.7431H96.8463C96.9463 12.7431 97.0633 12.7431 97.1473 12.7601C98.1173 12.8101 98.8373 13.3121 98.8373 14.1821C98.8373 14.8671 98.3513 15.4521 97.4483 15.5701V15.6031C98.4353 15.6701 99.1883 16.2231 99.1883 17.0751C99.1883 17.9951 98.3513 18.5971 97.2483 18.5971H92.5303V24.7851H96.9963C98.6683 24.7851 100.039 23.4301 100.039 21.7411V6.53809H95.5913H95.5903Z" fill="url(#paint1_linear)"/>
<path d="M96.4102 14.3825C96.4102 13.9815 96.1262 13.7135 95.7912 13.6635C95.7582 13.6635 95.6742 13.6465 95.6242 13.6465H94.0352V15.1185H95.6252C95.6752 15.1185 95.7752 15.1185 95.7912 15.1025C96.1262 15.0525 96.4112 14.7845 96.4112 14.3825H96.4102Z" fill="url(#paint2_linear)"/>
<path d="M78.7661 6.53906C77.0931 6.53906 75.7221 7.89306 75.7221 9.58306V17.0921C76.5751 17.5101 77.4621 17.7781 78.3481 17.7781C79.4011 17.7781 79.9701 17.1421 79.9701 16.2721V12.7271H82.5791V16.2561C82.5791 17.6271 81.7261 18.7481 78.8331 18.7481C77.0771 18.7481 75.7051 18.3631 75.7051 18.3631V24.7691H80.1711C81.8431 24.7691 83.2151 23.4141 83.2151 21.7251V6.53906H78.7651H78.7661Z" fill="url(#paint3_linear)"/>
<path d="M87.1783 6.53909C85.5063 6.53909 84.1343 7.89309 84.1343 9.58309V13.5631C84.9043 12.9111 86.2423 12.4931 88.3993 12.5931C89.5533 12.6431 90.7913 12.9611 90.7913 12.9611V14.2491C90.1723 13.9311 89.4363 13.6471 88.4833 13.5791C86.8433 13.4631 85.8573 14.2661 85.8573 15.6701C85.8573 17.0921 86.8443 17.8951 88.4833 17.7611C89.4363 17.6941 90.1723 17.3931 90.7913 17.0921V18.3801C90.7913 18.3801 89.5703 18.6981 88.3993 18.7481C86.2423 18.8481 84.9043 18.4301 84.1343 17.7781V24.8021H88.6003C90.2723 24.8021 91.6443 23.4471 91.6443 21.7581V6.53809H87.1783V6.53909Z" fill="url(#paint4_linear)"/>
<defs>
<linearGradient id="paint0_linear" x1="92.543" y1="16.8262" x2="100.061" y2="16.8262" gradientUnits="userSpaceOnUse">
<stop stop-color="#007940"/>
<stop offset="0.2285" stop-color="#00873F"/>
<stop offset="0.7433" stop-color="#40A737"/>
<stop offset="1" stop-color="#5CB531"/>
</linearGradient>
<linearGradient id="paint1_linear" x1="92.544" y1="15.6539" x2="100.06" y2="15.6539" gradientUnits="userSpaceOnUse">
<stop stop-color="#007940"/>
<stop offset="0.2285" stop-color="#00873F"/>
<stop offset="0.7433" stop-color="#40A737"/>
<stop offset="1" stop-color="#5CB531"/>
</linearGradient>
<linearGradient id="paint2_linear" x1="92.5427" y1="14.38" x2="100.062" y2="14.38" gradientUnits="userSpaceOnUse">
<stop stop-color="#007940"/>
<stop offset="0.2285" stop-color="#00873F"/>
<stop offset="0.7433" stop-color="#40A737"/>
<stop offset="1" stop-color="#5CB531"/>
</linearGradient>
<linearGradient id="paint3_linear" x1="75.718" y1="15.6548" x2="83.3508" y2="15.6548" gradientUnits="userSpaceOnUse">
<stop stop-color="#1F286F"/>
<stop offset="0.4751" stop-color="#004E94"/>
<stop offset="0.8261" stop-color="#0066B1"/>
<stop offset="1" stop-color="#006FBC"/>
</linearGradient>
<linearGradient id="paint4_linear" x1="84.0908" y1="15.6542" x2="91.5038" y2="15.6542" gradientUnits="userSpaceOnUse">
<stop stop-color="#6C2C2F"/>
<stop offset="0.1735" stop-color="#882730"/>
<stop offset="0.5731" stop-color="#BE1833"/>
<stop offset="0.8585" stop-color="#DC0436"/>
<stop offset="1" stop-color="#E60039"/>
</linearGradient>
</defs>
</svg>
