<svg width="40" height="40" viewBox="0 0 40 40" fill="none" xmlns="http://www.w3.org/2000/svg">
<rect x="0.5" y="0.5" width="39" height="39" rx="3.5" fill="white"/>
<path d="M22.5648 9.66368C22.3332 9.42696 22.0385 9.30735 21.6797 9.30735C21.1534 9.30735 20.7693 9.56043 20.5276 10.0653C20.0113 9.45844 19.3062 9.15625 18.411 9.15625C17.3369 9.15625 16.4341 9.5705 15.7026 10.399C14.971 11.2275 14.6059 12.2386 14.6059 13.4297C14.6059 14.6209 14.971 15.6319 15.7026 16.4605C16.4341 17.289 17.3382 17.7032 18.411 17.7032C19.305 17.7032 20.0113 17.3998 20.5276 16.7941C20.7693 17.3003 21.1534 17.5521 21.6797 17.5521C22.0373 17.5521 22.3319 17.4338 22.5648 17.1958C22.7965 16.9591 22.9124 16.6682 22.9124 16.3245V10.535C22.9124 10.1913 22.7965 9.90165 22.5648 9.66368ZM19.9987 14.8651C19.6991 15.2517 19.2848 15.4456 18.7585 15.4456C18.2322 15.4456 17.8192 15.2529 17.5183 14.8651C17.2186 14.4773 17.0688 14.0001 17.0688 13.4297C17.0688 12.8593 17.2186 12.3821 17.5183 11.9943C17.8179 11.6078 18.2309 11.4139 18.7585 11.4139C19.2861 11.4139 19.6978 11.6065 19.9987 11.9943C20.2984 12.3809 20.4483 12.8593 20.4483 13.4297C20.4483 14.0001 20.2984 14.4786 19.9987 14.8651Z" fill="#0068FF"/>
<path d="M25.7013 17.2013C25.4697 17.4392 25.175 17.5576 24.8174 17.5576C24.4598 17.5576 24.1639 17.4392 23.9323 17.2013C23.7006 16.9645 23.5847 16.6737 23.5847 16.3299V5.96984C23.5847 5.6261 23.7006 5.33524 23.9323 5.09852C24.1639 4.86055 24.4586 4.74219 24.8174 4.74219C25.1763 4.74219 25.4697 4.86055 25.7013 5.09852C25.933 5.3365 26.0489 5.62735 26.0489 5.96984V16.3299C26.0489 16.6737 25.933 16.9645 25.7013 17.2013Z" fill="#0068FF"/>
<path d="M33.863 10.399C33.0736 9.5705 32.0675 9.15625 30.8461 9.15625C29.6248 9.15625 28.6276 9.56547 27.8545 10.3839C27.0801 11.2023 26.6935 12.2172 26.6935 13.4297C26.6935 14.6423 27.0801 15.6571 27.8545 16.4756C28.6288 17.294 29.6248 17.7032 30.8461 17.7032C32.0675 17.7032 33.0736 17.289 33.863 16.4605C34.621 15.6521 35 14.6423 35 13.4297C35 12.2172 34.621 11.2074 33.863 10.399ZM32.0864 14.8651C31.7867 15.2517 31.3725 15.4456 30.8461 15.4456C30.3198 15.4456 29.9068 15.2529 29.6072 14.8651C29.3075 14.4773 29.1564 14.0001 29.1564 13.4297C29.1564 12.8593 29.3062 12.3821 29.6072 11.9943C29.9068 11.6078 30.3198 11.4139 30.8461 11.4139C31.3725 11.4139 31.7855 11.6065 32.0864 11.9943C32.3861 12.3809 32.5359 12.8593 32.5359 13.4297C32.5359 14.0001 32.3861 14.4786 32.0864 14.8651Z" fill="#0068FF"/>
<path d="M13.2423 9.44812C14.1123 8.32498 14.548 7.5695 14.548 7.17917C14.548 6.27889 13.9814 5.82812 12.8469 5.82812H6.8673C6.39765 5.82812 6.03375 5.93893 5.77563 6.16053C5.51751 6.3834 5.38909 6.67174 5.38909 7.02556C5.38909 7.37937 5.51751 7.67023 5.77563 7.89184C6.03375 8.11344 6.39639 8.22425 6.8673 8.22425H10.9746L5.71646 15.0172C5.37271 15.4617 5.20148 15.8558 5.20148 16.1996C5.20148 17.1867 5.85496 17.6816 7.16067 17.6816H13.3291C14.315 17.6816 14.8074 17.2686 14.8074 16.4413C14.8074 15.6141 14.315 15.2011 13.3291 15.2011H8.7925L13.2423 9.44686V9.44812Z" fill="#0068FF"/>
<path d="M10.0969 24.0794H8.56079V27.2713H10.0969C10.559 27.2713 10.933 27.1202 11.2188 26.8192C11.5046 26.5183 11.6482 26.1368 11.6482 25.6747C11.6482 25.2126 11.5046 24.8311 11.2188 24.5302C10.933 24.2292 10.559 24.0781 10.0969 24.0781V24.0794Z" fill="#03CA77"/>
<path d="M17.7588 27.0781C17.2715 27.0781 16.8887 27.2569 16.6117 27.6145C16.3347 27.9721 16.1949 28.4153 16.1949 28.9429C16.1949 29.4705 16.3334 29.9137 16.6117 30.2713C16.89 30.6289 17.2715 30.8077 17.7588 30.8077C18.246 30.8077 18.6288 30.6289 18.9058 30.2713C19.1828 29.9124 19.3226 29.4705 19.3226 28.9429C19.3226 28.4153 19.1841 27.9734 18.9058 27.6145C18.6276 27.2569 18.2448 27.0781 17.7588 27.0781Z" fill="#03CA77"/>
<path d="M28.6074 19.5156H6.34476C5.60187 19.5156 5 20.1175 5 20.8604V33.9037C5 34.6466 5.60187 35.2484 6.34476 35.2484H23.9197C23.7346 35.0722 23.6414 34.8669 23.6414 34.6315C23.6414 34.4388 23.6842 34.2374 23.7711 34.0258L24.5996 32.1825L22.3067 26.4597C22.24 26.296 22.206 26.1185 22.206 25.9258C22.206 25.6765 22.3118 25.465 22.5233 25.2912C22.7348 25.1187 22.9552 25.0319 23.1869 25.0319C23.6955 25.0319 24.0418 25.2774 24.2244 25.7672L25.6522 29.673L27.1808 25.7672C27.3735 25.2774 27.7185 25.0319 28.2183 25.0319C28.4488 25.0319 28.6704 25.1187 28.8819 25.2912C29.0934 25.4637 29.1992 25.6753 29.1992 25.9258C29.1992 26.1185 29.1652 26.296 29.0985 26.4597L25.7039 34.7032C25.6107 34.9337 25.4986 35.115 25.3689 35.2484H28.6087C29.3515 35.2484 29.9534 34.6466 29.9534 33.9037V20.8604C29.9534 20.1175 29.3515 19.5156 28.6087 19.5156H28.6074ZM12.8822 28.2917C12.1796 28.9339 11.2956 29.255 10.2329 29.255H8.56208V31.7241C8.56208 32.0956 8.45631 32.3839 8.24604 32.5892C8.03576 32.7944 7.7638 32.8976 7.43264 32.8976C7.10149 32.8976 6.83077 32.7944 6.61924 32.5892C6.40896 32.3839 6.30321 32.0956 6.30321 31.7241V23.264C6.30321 22.4809 6.69479 22.0893 7.47797 22.0893H10.1423C11.2566 22.0893 12.177 22.423 12.9048 23.0903C13.6326 23.7576 13.9965 24.6239 13.9965 25.6866C13.9965 26.7493 13.625 27.6282 12.8822 28.2905V28.2917ZM21.6029 31.6221C21.6029 31.9407 21.4958 32.2089 21.2818 32.428C21.0665 32.6483 20.7945 32.7579 20.4634 32.7579C19.9761 32.7579 19.621 32.5249 19.3969 32.0565C18.9184 32.6181 18.2662 32.8976 17.4389 32.8976C16.4455 32.8976 15.6094 32.5149 14.932 31.7481C14.2546 30.9812 13.9172 30.0457 13.9172 28.9427C13.9172 27.8397 14.2559 26.9042 14.932 26.1374C15.6094 25.3706 16.4455 24.9878 17.4389 24.9878C18.2662 24.9878 18.9197 25.2686 19.3969 25.8289C19.621 25.3618 19.9761 25.1276 20.4634 25.1276C20.7945 25.1276 21.0677 25.2371 21.2818 25.4575C21.4958 25.6778 21.6029 25.946 21.6029 26.2646V31.6221Z" fill="#03CA77"/>
<rect x="0.5" y="0.5" width="39" height="39" rx="3.5" stroke="#D9D9D9"/>
</svg>
